<svg width="9" height="11" viewBox="0 0 9 11" fill="none" xmlns="http://www.w3.org/2000/svg">
<path d="M4.50604 5.86524L1.7739 8.78711C1.58506 8.98907 1.2797 8.98907 1.09287 8.78711L0.638852 8.30157C0.450013 8.09961 0.450013 7.77305 0.638852 7.57325L2.57546 5.50215L0.638852 3.43106C0.450013 3.22911 0.450013 2.90254 0.638852 2.70274L1.09086 2.2129C1.2797 2.01094 1.58506 2.01094 1.77189 2.2129L4.50403 5.13477C4.69488 5.33672 4.69488 5.66329 4.50604 5.86524V5.86524ZM8.36318 5.13477L5.63104 2.2129C5.4422 2.01094 5.13684 2.01094 4.95001 2.2129L4.496 2.69844C4.30716 2.9004 4.30716 3.22696 4.496 3.42676L6.4326 5.49786L4.496 7.56895C4.30716 7.7709 4.30716 8.09746 4.496 8.29727L4.95001 8.78282C5.13885 8.98477 5.44421 8.98477 5.63104 8.78282L8.36318 5.86094C8.55202 5.66329 8.55202 5.33672 8.36318 5.13477Z" fill="#B3B2B2"/>
</svg>
